<svg width="30" height="28" viewBox="0 0 30 28" fill="none" xmlns="http://www.w3.org/2000/svg">
<path d="M17.1737 9.46605C17.9973 9.31343 18.7608 8.93081 19.376 8.36245C19.9912 7.79409 20.4329 7.0632 20.6501 6.2543C20.8674 5.44539 20.8512 4.59153 20.6035 3.79144C20.3557 2.99136 19.8866 2.27773 19.2503 1.7331C18.614 1.18846 17.8365 0.835061 17.0078 0.713766C16.1791 0.592471 15.3329 0.708235 14.5672 1.04767C13.8015 1.38711 13.1476 1.93635 12.6809 2.63188C12.2143 3.32741 11.9541 4.14082 11.9304 4.97805H14.0901C15.7932 4.97805 17.1737 6.35855 17.1737 8.06171V9.46605ZM9.29956 23.6524H14.0901C15.7932 23.6524 17.1737 22.2719 17.1737 20.5687V10.9015H22.2759C22.6156 10.9102 22.9381 11.0533 23.1725 11.2993C23.4069 11.5454 23.5341 11.8744 23.5262 12.2142V20.0865C23.5735 22.1249 22.8098 24.0987 21.4028 25.5744C19.9958 27.0501 18.0607 27.9071 16.0224 27.957C13.0561 27.8837 10.5224 26.142 9.29956 23.6487V23.6524ZM28.9841 6.47038C28.9841 6.87353 28.9046 7.27273 28.7504 7.64519C28.5961 8.01765 28.37 8.35607 28.0849 8.64114C27.7998 8.92621 27.4614 9.15234 27.0889 9.30661C26.7165 9.46089 26.3173 9.5403 25.9141 9.5403C25.511 9.5403 25.1118 9.46089 24.7393 9.30661C24.3669 9.15234 24.0284 8.92621 23.7434 8.64114C23.4583 8.35607 23.2322 8.01765 23.0779 7.64519C22.9236 7.27273 22.8442 6.87353 22.8442 6.47038C22.8442 5.65619 23.1677 4.87534 23.7434 4.29962C24.3191 3.7239 25.0999 3.40046 25.9141 3.40046C26.7283 3.40046 27.5092 3.7239 28.0849 4.29962C28.6606 4.87534 28.9841 5.65619 28.9841 6.47038ZM24.8811 23.865L24.6611 23.8614C25.1501 22.6572 25.3878 21.3658 25.3596 20.0664V12.2325C25.3667 11.7747 25.2728 11.3209 25.0846 10.9034H28.3699C29.0849 10.9034 29.6661 11.4845 29.6661 12.1995V19.102C29.6651 20.365 29.163 21.5759 28.2699 22.4689C27.3769 23.3619 26.166 23.8641 24.9031 23.865H24.8811Z" fill="#212121"/>
<path d="M1.58371 6.8114H14.0907C14.7819 6.8114 15.341 7.37057 15.341 8.06174V20.5687C15.3415 20.7331 15.3095 20.8959 15.2469 21.0478C15.1842 21.1997 15.0921 21.3377 14.9759 21.4539C14.8597 21.5701 14.7217 21.6622 14.5698 21.7249C14.4178 21.7875 14.255 21.8195 14.0907 21.8191H1.58371C1.41938 21.8195 1.25657 21.7875 1.10466 21.7249C0.952743 21.6622 0.814715 21.5701 0.698514 21.4539C0.582314 21.3377 0.490233 21.1997 0.427569 21.0478C0.364906 20.8959 0.332895 20.7331 0.333379 20.5687V8.0599C0.333379 7.36874 0.892546 6.8114 1.58371 6.8114ZM11.128 11.5707V10.2507H4.54638V11.5707H7.03421V18.3816H8.62921V11.5707H11.128Z" fill="#212121"/>
</svg>
